<svg width="155" height="172" viewBox="0 0 155 172" fill="none" xmlns="http://www.w3.org/2000/svg">
<path d="M73.1734 0C73.1734 8.15603 73.1499 16.3154 73.1767 24.4714C73.2069 32.8889 78.4431 39.332 86.6494 41.0383C87.7825 41.2729 88.9793 41.2729 90.1458 41.2763C96.961 41.2964 103.779 41.2863 110.595 41.2863C111.201 41.2863 111.808 41.2863 112.552 41.2863C112.552 51.9264 112.552 62.439 112.552 73.0288C111.121 73.0288 109.74 73.0154 108.355 73.0322C96.086 73.1662 85.1912 77.1521 75.6473 84.812C74.3534 85.8512 73.0762 86.2836 71.4101 86.2769C56.2713 86.2166 41.1292 86.2367 25.9904 86.2501C25.2161 86.2501 24.4216 86.297 23.6673 86.4613C22.1789 86.7831 21.2671 88.0268 21.4113 89.5152C21.5554 91.0103 22.3298 92.016 23.8886 92.2271C24.606 92.3244 25.3334 92.3445 26.0575 92.3478C39.2419 92.3545 52.4263 92.3512 65.6141 92.3512C66.2711 92.3512 66.9281 92.3512 67.6891 92.3512C65.8454 95.3615 64.1123 98.1875 62.3892 101.02C62.1009 101.496 61.7254 101.972 61.6148 102.495C60.9511 105.623 58.9665 106.079 56.0333 106.018C45.8123 105.814 35.5879 105.935 25.3636 105.945C22.95 105.948 21.6359 106.887 21.4347 108.693C21.2437 110.393 22.303 111.774 24.0026 111.985C24.6093 112.059 25.2295 112.046 25.8429 112.046C35.8997 112.049 45.9565 112.049 56.0132 112.049C56.6099 112.049 57.2033 112.049 58.0078 112.049C55.2221 123.661 56.03 134.814 60.5186 145.816C59.6705 145.816 59.0638 145.816 58.457 145.816C43.9853 145.816 29.517 145.82 15.0454 145.816C5.8099 145.813 0.0976614 140.117 0.0976614 130.905C0.0943092 92.797 0.21499 54.6953 0.000446139 16.5936C-0.0464854 8.23983 3.60747 1.8605 11.8272 0C32.2759 0 52.7247 0 73.1734 0ZM43.992 66.978C37.5758 66.978 31.163 66.9612 24.7468 66.988C22.6818 66.9981 21.4113 68.1513 21.3744 69.9112C21.3375 71.6309 22.6147 72.888 24.5993 73.0724C24.8775 73.0992 25.1557 73.0824 25.4373 73.0824C37.7669 73.0824 50.0931 73.0891 62.4227 73.069C63.1904 73.069 64.0083 72.9919 64.709 72.7137C66.0398 72.184 66.6533 71.0979 66.4957 69.6464C66.3382 68.1881 65.4699 67.3367 64.072 67.0584C63.4787 66.9411 62.8484 66.9847 62.235 66.9847C56.154 66.9746 50.073 66.9746 43.992 66.978Z" fill="#F6B237"/>
<path d="M104.35 171.635C102.067 171.176 99.7436 170.854 97.5076 170.237C80.6525 165.574 69.2817 154.941 64.374 138.18C58.6517 118.623 65.9193 98.925 82.6873 87.2826C91.3395 81.2754 101.061 78.5802 111.624 79.3814C128.301 80.6452 140.822 88.714 149.102 103.105C154.325 112.18 156.149 122.109 154.295 132.481C150.929 151.327 139.937 163.677 121.832 169.688C119.006 170.626 115.992 171.002 113.065 171.635C110.159 171.635 107.253 171.635 104.35 171.635ZM111.761 107.849C111.889 107.785 112.016 107.718 112.144 107.654C112.512 108.063 112.874 108.476 113.246 108.878C118.228 114.235 123.206 119.595 128.194 124.949C128.61 125.398 129.015 126.055 129.528 126.175C130.591 126.42 131.918 126.759 132.763 126.326C133.521 125.937 134.178 124.556 134.148 123.634C134.118 122.666 133.397 121.569 132.683 120.795C125.72 113.239 118.701 105.737 111.694 98.221C109.509 95.8745 107.886 95.8979 105.66 98.2847C98.6943 105.76 91.7216 113.232 84.759 120.711C84.3064 121.201 83.8472 121.704 83.5053 122.27C82.8013 123.43 82.865 124.61 83.6963 125.693C84.5512 126.809 85.7781 127.064 87.0017 126.641C87.7425 126.387 88.413 125.756 88.9728 125.163C94.1017 119.716 99.2005 114.238 104.313 108.774C104.668 108.395 105.067 108.053 105.68 107.477C105.68 108.419 105.68 109.019 105.68 109.619C105.68 123.189 105.677 136.759 105.694 150.328C105.694 151.096 105.741 151.911 105.989 152.625C106.492 154.073 107.635 154.72 109.14 154.532C110.571 154.351 111.433 153.439 111.698 152.035C111.812 151.438 111.758 150.811 111.761 150.198C111.765 136.685 111.765 123.168 111.765 109.656C111.761 109.049 111.761 108.449 111.761 107.849Z" fill="#F6B237"/>
<path d="M79.5462 4.83057C89.1537 14.9343 98.6406 24.9139 108.419 35.1986C106.72 35.1986 105.409 35.1986 104.098 35.1986C99.4619 35.1986 94.8224 35.2053 90.1862 35.1986C83.8203 35.1886 79.5093 31.2999 79.3182 24.9776C79.1204 18.4474 79.2746 11.9072 79.2813 5.37028C79.2847 5.27306 79.3718 5.1792 79.5462 4.83057Z" fill="#F6B237"/>
</svg>
