<svg width="133" height="30" viewBox="0 0 133 30" fill="none" xmlns="http://www.w3.org/2000/svg">
<path d="M29.3882 7.32735V29.0837H23.5982V27.4607C22.7139 28.1345 21.7313 28.6854 20.6733 29.0837C19.661 29.4679 18.5819 29.7118 17.4573 29.796C17.1678 29.8188 16.8748 29.8294 16.58 29.8294C10.1847 29.8294 5 24.6447 5 18.2494V18.2055H11.4918V18.2494C11.4918 21.4479 14.0833 24.0394 17.2818 24.0394C17.3415 24.0394 17.3994 24.0394 17.4573 24.0359C20.5751 23.9446 23.0718 21.3883 23.0718 18.2494V18.2055C23.049 15.0859 20.5593 12.5541 17.4573 12.4629V6.70273C18.4924 6.77993 19.4908 6.99398 20.4312 7.32735C21.5804 7.73089 22.6472 8.3134 23.5982 9.03803V7.32735H29.3882Z" fill="white"/>
<g filter="url(#filter0_d_47_877)">
<path d="M17.4573 6.70273V18.2055H5C5 18.1617 5 18.1195 5.00175 18.0774L16.5414 7.32734L17.2274 6.68869C17.3029 6.6922 17.3801 6.69571 17.4573 6.70273Z" fill="#F6B237"/>
</g>
<path d="M109.556 17.5584C109.556 12.2267 113.359 5.99338 121.278 5.99338C129.197 5.99338 133 12.2267 133 17.5584C133 22.89 129.197 29.1234 121.278 29.1234C113.359 29.1234 109.556 22.89 109.556 17.5584ZM116.064 17.5584C116.064 20.7339 118.456 23.0469 121.278 23.0469C124.101 23.0469 126.492 20.7339 126.492 17.5584C126.492 14.3829 124.101 12.0699 121.278 12.0699C118.456 12.0699 116.064 14.3829 116.064 17.5584Z" fill="white"/>
<path d="M99.3583 29.1811V0.170624H105.866V29.1811H99.3583Z" fill="white"/>
<path d="M89.1519 20.0234H95.7773C94.6012 24.9631 90.2496 29.001 84.3691 29.001C77.783 29.001 72.7257 23.8262 72.7257 17.3576C72.7257 10.9675 77.7045 5.7926 84.2123 5.7926C89.9752 5.7926 94.6404 9.59533 95.7381 14.927H89.1519C88.4463 13.4373 87.1526 11.8691 84.4475 11.8691C81.3505 11.7123 79.2727 14.2605 79.2727 17.3968C79.2727 20.5723 81.3505 22.9245 84.4475 22.9245C87.1526 22.9245 88.4463 21.3564 89.1519 20.0234Z" fill="white"/>
<path d="M69.0745 7.42325V29.1811H62.5668V7.42325H69.0745ZM69.0745 0.170624V5.11025H62.5668V0.170624H69.0745Z" fill="white"/>
<path d="M56.6241 0.170624V7.42325H59.7604V12.3629H56.6241V29.1811H50.1164V12.3629H46.9017V7.42325H50.1164V0.170624H56.6241Z" fill="white"/>
<path d="M33.7759 29.0985V7.3406H39.8916V9.6536H39.97C40.5189 8.59511 41.6558 6.59573 45.4193 6.59573V13.1427C42.4006 13.2211 40.2836 13.8484 40.2836 17.1415V29.0985H33.7759Z" fill="white"/>
<defs>
<filter id="filter0_d_47_877" x="0.8" y="5.48869" width="20.8573" height="19.9168" filterUnits="userSpaceOnUse" color-interpolation-filters="sRGB">
<feFlood flood-opacity="0" result="BackgroundImageFix"/>
<feColorMatrix in="SourceAlpha" type="matrix" values="0 0 0 0 0 0 0 0 0 0 0 0 0 0 0 0 0 0 127 0" result="hardAlpha"/>
<feOffset dy="3"/>
<feGaussianBlur stdDeviation="2.1"/>
<feComposite in2="hardAlpha" operator="out"/>
<feColorMatrix type="matrix" values="0 0 0 0 0 0 0 0 0 0 0 0 0 0 0 0 0 0 0.33 0"/>
<feBlend mode="normal" in2="BackgroundImageFix" result="effect1_dropShadow_47_877"/>
<feBlend mode="normal" in="SourceGraphic" in2="effect1_dropShadow_47_877" result="shape"/>
</filter>
</defs>
</svg>
