<svg width="43" height="43" viewBox="0 0 43 43" fill="none" xmlns="http://www.w3.org/2000/svg">
<path d="M23.1387 29.0912C20.7328 29.0602 18.5907 28.2148 16.793 26.521C15.9243 25.702 15.8499 24.5759 16.5944 23.791C17.3172 23.0263 18.4325 23.0232 19.2965 23.7801C21.8373 26.0091 24.9597 25.9192 27.3484 23.5351C30.747 20.1458 34.1517 16.7644 37.5286 13.3518C40.2973 10.552 39.7048 6.21041 36.3419 4.38473C34.2851 3.26791 31.6947 3.55177 29.9823 5.18356C28.1721 6.90377 26.4302 8.69378 24.6665 10.4605C24.1717 10.9569 23.6056 11.247 22.8982 11.1229C22.1971 11.0003 21.6868 10.597 21.4603 9.91763C21.223 9.20411 21.3455 8.53402 21.8853 7.98492C22.8765 6.97823 23.8801 5.9824 24.879 4.98502C25.6732 4.19083 26.455 3.38579 27.2662 2.61023C30.0815 -0.0763438 34.1828 -0.754191 37.6511 0.880708C41.1427 2.52646 43.2507 6.08787 42.9762 9.96416C42.8164 12.2273 41.9291 14.1988 40.3299 15.8104C36.798 19.3672 33.2567 22.9146 29.6922 26.4388C27.9053 28.2055 25.7151 29.0633 23.1387 29.0912Z" fill="#F6B237"/>
<path d="M19.8114 14.146C22.2948 14.1662 24.4121 14.965 26.1726 16.6527C26.9699 17.4174 27.018 18.5451 26.3185 19.3051C25.6251 20.059 24.4385 20.1412 23.666 19.3765C21.4882 17.2219 17.871 17.4174 15.6203 19.5455C13.6658 21.3929 11.7967 23.3303 9.89191 25.2289C8.5083 26.6094 7.11538 27.9822 5.74727 29.3782C4.09221 31.0674 3.3275 33.0683 3.91693 35.4152C4.69715 38.5206 8.01348 40.0686 11.1763 38.868C12.1907 38.4834 13.0376 37.8583 13.7961 37.092C15.2806 35.5936 16.779 34.1092 18.2665 32.6139C18.7474 32.1315 19.3073 31.8693 19.9914 31.9903C20.7188 32.1175 21.2354 32.5425 21.4494 33.2483C21.6681 33.9665 21.5115 34.6288 20.9686 35.1717C19.889 36.2544 18.8203 37.3479 17.7205 38.4105C16.7759 39.3241 15.8684 40.2997 14.8183 41.0753C11.2523 43.706 6.40961 43.6006 3.1879 40.9093C-0.0198531 38.2305 -0.944331 33.6019 1.04578 29.6683C1.57782 28.6166 2.30685 27.613 3.12895 26.7661C6.2576 23.5459 9.45604 20.394 12.6374 17.2266C14.6353 15.2411 17.0333 14.1802 19.8114 14.146Z" fill="#F6B237"/>
</svg>
