<svg width="275" height="222" viewBox="0 0 275 222" fill="none" xmlns="http://www.w3.org/2000/svg">
<rect opacity="0.2" width="275" height="222" rx="5" fill="#F6B237"/>
<path d="M87.948 126.57C116.46 141.464 162.69 141.464 191.202 126.57C219.714 111.675 219.714 87.5245 191.202 72.6263C162.69 57.7281 116.473 57.7313 87.948 72.6263C59.423 87.5212 59.4491 111.675 87.948 126.57Z" fill="#F5F5F5"/>
<path d="M80.0001 102.142L70.7319 96.7927V76.9132L80.0001 82.2661V102.142Z" fill="#E0E0E0"/>
<path d="M80.0001 82.2661L93.2422 74.6214V94.4976L80.0001 102.142V82.2661Z" fill="#EBEBEB"/>
<path d="M93.2422 74.6214L80.0001 82.2661L70.7319 76.9132L83.9741 69.2685L93.2422 74.6214Z" fill="#F5F5F5"/>
<path d="M81.3269 83.0289L91.9187 76.9132L92.1632 77.0534V84.4177L81.5682 90.5335L81.3237 90.3933L81.3269 83.0289Z" fill="#E0E0E0"/>
<path d="M81.5682 83.1724L92.1632 77.0534V84.4177L81.5682 90.5335V83.1724Z" fill="#F5F5F5"/>
<path d="M85.7214 82.0216L87.5242 80.9817C87.7556 80.8447 87.9447 80.9067 87.9447 81.1186C87.9279 81.2484 87.8812 81.3725 87.8082 81.4811C87.7352 81.5897 87.638 81.6799 87.5242 81.7445L85.7214 82.7844C85.4867 82.9214 85.2976 82.8594 85.2976 82.6475C85.3145 82.5173 85.3616 82.3929 85.4352 82.2843C85.5088 82.1756 85.6068 82.0856 85.7214 82.0216Z" fill="#E0E0E0"/>
<path d="M81.0824 92.346L91.6742 86.2303V93.5946L91.9187 93.7348L81.3237 99.8506L81.0824 99.7104V92.346Z" fill="#E0E0E0"/>
<path d="M81.3237 92.4862L91.9187 86.3705V93.7348L81.3237 99.8506V92.4862Z" fill="#F5F5F5"/>
<path d="M85.4769 91.3387L87.296 90.302C87.5307 90.1651 87.7198 90.227 87.7198 90.4389C87.7029 90.5691 87.6557 90.6935 87.5822 90.8022C87.5086 90.9109 87.4106 91.0008 87.296 91.0649L85.4932 92.1048C85.2585 92.2417 85.0694 92.1798 85.0694 91.9679C85.084 91.8386 85.1285 91.7146 85.1992 91.6054C85.2699 91.4962 85.3649 91.4049 85.4769 91.3387Z" fill="#E0E0E0"/>
<path d="M80.0001 81.1186L70.7319 75.7657V55.8895L80.0001 61.2391V81.1186Z" fill="#E0E0E0"/>
<path d="M80.0001 61.2391L93.2422 53.5944V73.4739L80.0001 81.1186V61.2391Z" fill="#EBEBEB"/>
<path d="M93.2422 53.5944L80.0001 61.2391L70.7319 55.8895L83.9741 48.2448L93.2422 53.5944Z" fill="#F5F5F5"/>
<path d="M81.3237 62.0052L91.9187 55.8895L92.1632 56.0296V63.394L81.5682 69.5097L81.3237 69.3663V62.0052Z" fill="#E0E0E0"/>
<path d="M85.7214 60.9946L87.5209 59.9547C87.7556 59.821 87.9447 59.8829 87.9447 60.0948C87.9273 60.2249 87.88 60.3491 87.8065 60.4577C87.7329 60.5663 87.6352 60.6563 87.5209 60.7208L85.7214 61.7607C85.4867 61.8944 85.2976 61.8357 85.2976 61.6238C85.3148 61.4933 85.362 61.3685 85.4355 61.2594C85.509 61.1502 85.6069 61.0596 85.7214 60.9946Z" fill="#E0E0E0"/>
<path d="M81.0824 71.3223L91.6742 65.2065V72.5676L91.9187 72.7078L81.3237 78.8235L81.0824 78.6834V71.3223Z" fill="#E0E0E0"/>
<path d="M81.3237 71.4625L91.9187 65.3467V72.7078L81.3237 78.8235V71.4625Z" fill="#F5F5F5"/>
<path d="M85.4769 70.3117L87.296 69.2717C87.5274 69.1381 87.7198 69.2 87.7198 69.4119C87.7014 69.5416 87.6537 69.6654 87.5803 69.7739C87.5068 69.8824 87.4096 69.9726 87.296 70.0378L85.4769 71.068C85.2422 71.2017 85.0531 71.1397 85.0531 70.9311C85.0717 70.8023 85.1195 70.6795 85.193 70.5721C85.2665 70.4647 85.3636 70.3756 85.4769 70.3117Z" fill="#E0E0E0"/>
<path d="M81.3237 62.0052L91.9187 55.8895V63.2505L81.3237 69.3663V62.0052Z" fill="#E0E0E0"/>
<path d="M97.2162 59.5276L91.4166 56.1796V62.667L97.2162 66.0118V59.5276Z" fill="#E0E0E0"/>
<path d="M85.2976 70.416V61.2391L87.5698 59.9221L87.9447 60.4763L94.5658 56.6523V65.0631L85.2976 70.416Z" fill="#EBEBEB"/>
<path d="M85.2976 70.416L85.9594 62.3866L95.2276 57.037L94.5658 65.0631L85.2976 70.416Z" fill="#F5F5F5"/>
<path d="M86.6212 65.6434L81.5682 62.7257V69.2131L86.6212 72.1275V65.6434Z" fill="#EBEBEB"/>
<path d="M86.6212 65.0631L97.2162 58.9473V66.3084L86.6212 72.4242V65.0631Z" fill="#F5F5F5"/>
<path d="M90.7744 63.9123L92.5739 62.8724C92.8087 62.7387 92.9977 62.8006 92.9977 63.0125C92.9801 63.1425 92.9327 63.2666 92.8592 63.3751C92.7856 63.4837 92.688 63.5738 92.5739 63.6385L90.7744 64.6784C90.5397 64.8121 90.3506 64.7501 90.3506 64.5415C90.3678 64.411 90.415 64.2862 90.4885 64.1771C90.5621 64.0679 90.6599 63.9773 90.7744 63.9123Z" fill="#E0E0E0"/>
<path d="M86.6212 65.0631L86.2691 64.861V72.222L86.6212 72.4242V65.0631Z" fill="#E0E0E0"/>
<path d="M86.2691 64.861L96.8608 58.7419L97.2162 58.9473L86.6212 65.0631L86.2691 64.861Z" fill="#EBEBEB"/>
<path d="M189.497 90.0999L180.226 84.747V64.8707L189.497 70.2204V90.0999Z" fill="#E0E0E0"/>
<path d="M189.497 70.2204L202.739 62.5757V82.4552L189.497 90.0999V70.2204Z" fill="#EBEBEB"/>
<path d="M202.739 62.5757L189.497 70.2204L180.226 64.8708L193.471 57.2228L202.739 62.5757Z" fill="#F5F5F5"/>
<path d="M190.821 70.9865L201.416 64.8707L201.66 65.0109L201.657 72.372L191.065 78.4878L190.821 78.3476V70.9865Z" fill="#E0E0E0"/>
<path d="M191.065 71.1267L201.66 65.0109L201.657 72.372L191.065 78.4878V71.1267Z" fill="#F5F5F5"/>
<path d="M195.218 69.9759L197.018 68.936C197.253 68.8023 197.442 68.8643 197.442 69.0729C197.424 69.2034 197.377 69.3282 197.304 69.4373C197.23 69.5465 197.132 69.6371 197.018 69.7021L195.218 70.742C194.984 70.8757 194.794 70.8137 194.794 70.6051C194.812 70.4746 194.859 70.3498 194.932 70.2407C195.006 70.1315 195.104 70.0409 195.218 69.9759Z" fill="#E0E0E0"/>
<path d="M190.576 80.3036L201.171 74.1846V81.5489L201.416 81.6891L190.821 87.8049L190.576 87.6647V80.3036Z" fill="#E0E0E0"/>
<path d="M190.821 80.4438L201.416 74.328V81.6891L190.821 87.8048V80.4438Z" fill="#F5F5F5"/>
<path d="M194.974 79.293L196.777 78.2531C197.008 78.1194 197.197 78.1813 197.197 78.39C197.18 78.52 197.133 78.6444 197.06 78.7535C196.987 78.8626 196.89 78.9534 196.777 79.0192L194.974 80.0591C194.739 80.1928 194.55 80.1308 194.55 79.9189C194.568 79.789 194.615 79.6649 194.689 79.5563C194.762 79.4477 194.86 79.3576 194.974 79.293Z" fill="#E0E0E0"/>
<path d="M101.314 110.876C101.314 110.876 101.35 105.706 98.0899 101.829C95.2048 98.3966 93.6693 96.2189 94.5789 95.2148C95.4884 94.2107 97.4444 93.9695 100.082 96.747C102.719 99.5245 102.924 107.218 102.559 108.959L101.314 110.876Z" fill="#F6B237"/>
<path opacity="0.2" d="M101.314 110.876C101.314 110.876 101.35 105.706 98.0899 101.829C95.2048 98.3966 93.6693 96.2189 94.5789 95.2148C95.4884 94.2107 97.4444 93.9695 100.082 96.747C102.719 99.5245 102.924 107.218 102.559 108.959L101.314 110.876Z" fill="black"/>
<path d="M101.862 105.318C101.825 105.318 101.789 105.305 101.759 105.282C101.73 105.259 101.71 105.227 101.702 105.19C100.561 99.8538 97.6335 96.9035 95.9872 95.6191C95.9531 95.5926 95.9309 95.5538 95.9254 95.511C95.9199 95.4682 95.9315 95.425 95.9578 95.3909C95.9848 95.3566 96.0243 95.3343 96.0676 95.3288C96.1109 95.3233 96.1546 95.335 96.1893 95.3615C97.8682 96.6655 100.858 99.6843 102.021 105.122C102.026 105.143 102.027 105.164 102.023 105.185C102.019 105.206 102.012 105.226 102 105.244C101.989 105.262 101.973 105.278 101.956 105.29C101.938 105.302 101.918 105.31 101.898 105.314L101.862 105.318Z" fill="white"/>
<path d="M101.19 112.796L99.8633 113.562C99.7218 113.175 99.4831 112.832 99.1702 112.564C98.8573 112.296 98.4808 112.113 98.0768 112.033C96.6261 111.707 95.12 111.763 94.1029 110.504C93.0858 109.246 94.3246 107.877 94.1029 106.951C93.8812 106.025 93.7378 105.758 91.9187 104.832C90.0996 103.906 89.3824 102.371 90.7516 101.331C92.1208 100.291 94.3376 101.053 95.6807 101.983C96.8739 102.798 98.0084 103.013 99.3417 103.179C100.675 103.345 102.846 104.085 102.514 107.182C102.296 109.099 101.852 110.984 101.19 112.796Z" fill="#F6B237"/>
<path d="M96.098 108.728C96.0633 108.727 96.0295 108.716 96.0014 108.696C95.9734 108.675 95.9524 108.646 95.9415 108.613C95.9292 108.572 95.9335 108.527 95.9536 108.489C95.9737 108.451 96.008 108.422 96.0491 108.408C96.1665 108.372 98.9831 107.479 100.18 108.437C100.209 108.465 100.227 108.504 100.23 108.544C100.233 108.585 100.221 108.625 100.195 108.657C100.17 108.689 100.133 108.711 100.093 108.717C100.053 108.723 100.011 108.714 99.9774 108.692C98.9212 107.844 96.1762 108.711 96.1469 108.721L96.098 108.728Z" fill="white"/>
<path d="M101.337 112.548C101.297 112.548 101.259 112.534 101.229 112.507C101.2 112.481 101.181 112.444 101.177 112.405C100.45 105.539 92.1795 102.282 92.098 102.25C92.0778 102.242 92.0593 102.231 92.0436 102.216C92.0278 102.201 92.0152 102.183 92.0064 102.164C91.9976 102.144 91.9928 102.123 91.9923 102.101C91.9918 102.08 91.9956 102.058 92.0034 102.038C92.0195 101.998 92.0501 101.967 92.0889 101.949C92.1277 101.931 92.1718 101.929 92.2121 101.943C92.3001 101.979 100.753 105.305 101.5 112.375C101.504 112.418 101.492 112.461 101.465 112.495C101.438 112.528 101.399 112.55 101.356 112.555L101.337 112.548Z" fill="white"/>
<path d="M182.423 108.287C182.459 108.173 183.857 100.975 182.423 95.8701C181.119 91.1887 179.417 89.4609 176.992 89.0795C174.566 88.6981 173.513 90.4454 174.801 92.8122C176.089 95.179 179.189 98.3183 179.948 103.606C180.274 105.784 180.522 107.675 180.522 107.675L182.423 108.287Z" fill="#F6B237"/>
<path opacity="0.2" d="M182.423 108.287C182.459 108.173 183.857 100.975 182.423 95.8701C181.119 91.1887 179.417 89.4609 176.992 89.0795C174.566 88.6981 173.513 90.4454 174.801 92.8122C176.089 95.179 179.189 98.3183 179.948 103.606C180.274 105.784 180.522 107.675 180.522 107.675L182.423 108.287Z" fill="black"/>
<path d="M181.605 104.154C181.583 104.152 181.562 104.147 181.543 104.138C181.524 104.128 181.506 104.115 181.492 104.099C181.478 104.083 181.467 104.064 181.46 104.044C181.453 104.024 181.45 104.002 181.451 103.981C181.777 98.1521 179.874 92.9491 176.46 90.3965C176.426 90.3706 176.403 90.332 176.397 90.2892C176.391 90.2464 176.402 90.2029 176.428 90.1683C176.454 90.1345 176.493 90.1122 176.535 90.1061C176.578 90.1 176.621 90.1106 176.656 90.1357C180.154 92.7437 182.116 98.0641 181.774 104.001C181.772 104.043 181.752 104.083 181.721 104.112C181.689 104.14 181.647 104.156 181.605 104.154Z" fill="white"/>
<path d="M186.175 112.036C185.989 110.697 186.759 108.688 188.587 108.212C190.416 107.736 191.231 106.687 190.573 105.539C189.914 104.392 190.068 103.339 191.727 102.863C193.386 102.387 194.84 101.559 193.885 99.8049C193.191 98.5368 193.037 97.7152 194.739 95.2181C196.151 93.1447 194.997 91.9287 193.23 92.1569C191.463 92.3851 190.371 94.4911 189.266 94.8432C188.16 95.1953 187.906 93.3175 186.449 94.1586C184.992 94.9997 185.08 97.1545 185.034 98.6574C184.988 100.16 184.891 100.499 183.574 100.317C182.257 100.134 180.966 100.349 180.995 103.534C181.018 106.266 182.475 109.65 182.475 109.65L186.175 112.036Z" fill="#F6B237"/>
<path d="M183.864 109.999H183.847C183.804 109.994 183.764 109.972 183.736 109.938C183.709 109.904 183.696 109.86 183.701 109.816C184.62 101.604 191.668 94.6769 193.507 93.2719C193.541 93.2455 193.585 93.2339 193.628 93.2398C193.671 93.2456 193.71 93.2683 193.737 93.3028C193.763 93.3374 193.775 93.3811 193.769 93.4242C193.763 93.4673 193.74 93.5063 193.706 93.5327C191.89 94.9182 184.933 101.754 184.027 109.852C184.022 109.892 184.003 109.929 183.973 109.956C183.943 109.983 183.904 109.998 183.864 109.999Z" fill="white"/>
<path d="M187.078 101.22C187.045 101.22 187.013 101.21 186.986 101.191C186.958 101.172 186.937 101.146 186.925 101.115C186.911 101.074 186.913 101.029 186.931 100.99C186.95 100.951 186.982 100.92 187.023 100.904C189.65 99.9255 192.63 100.388 192.757 100.408C192.799 100.415 192.837 100.439 192.862 100.474C192.887 100.508 192.897 100.552 192.891 100.594C192.883 100.636 192.859 100.673 192.825 100.699C192.79 100.724 192.747 100.736 192.705 100.731C192.676 100.731 189.683 100.261 187.137 101.21C187.118 101.216 187.098 101.22 187.078 101.22Z" fill="white"/>
<path d="M184.737 106.155C184.715 106.155 184.692 106.15 184.671 106.141C184.65 106.131 184.632 106.117 184.617 106.1C183.524 104.827 182.783 103.291 182.468 101.644C182.465 101.622 182.466 101.601 182.471 101.58C182.476 101.559 182.486 101.539 182.498 101.522C182.511 101.505 182.527 101.49 182.545 101.479C182.564 101.468 182.584 101.461 182.605 101.458C182.627 101.454 182.648 101.455 182.669 101.461C182.69 101.466 182.709 101.475 182.727 101.488C182.744 101.5 182.759 101.516 182.77 101.535C182.781 101.553 182.788 101.573 182.791 101.595C183.103 103.177 183.816 104.653 184.861 105.882C184.882 105.906 184.895 105.935 184.899 105.966C184.904 105.997 184.899 106.029 184.886 106.058C184.873 106.086 184.852 106.111 184.826 106.128C184.8 106.145 184.769 106.155 184.737 106.155Z" fill="white"/>
<path d="M101.19 62.341V112.799L152.835 82.9833L152.832 37.1118L114.432 59.2831L113.105 55.4591L101.19 62.341Z" fill="#F6B237"/>
<path opacity="0.7" d="M101.19 62.341V112.799L152.835 82.9833L152.832 37.1118L114.432 59.2831L113.105 55.4591L101.19 62.341Z" fill="black"/>
<path d="M101.19 112.799L103.837 66.9278L155.482 37.1118L152.835 82.9833L101.19 112.799Z" fill="#E0E0E0"/>
<path d="M101.19 112.799L105.161 67.6939L156.806 37.8747L152.835 82.9833L101.19 112.799Z" fill="#F6B237"/>
<path opacity="0.7" d="M101.19 112.799L105.161 67.6939L156.806 37.8747L152.835 82.9833L101.19 112.799Z" fill="black"/>
<path d="M109.135 66.9278V117.389L160.78 87.5701V41.6987L122.377 63.8699L121.053 60.0459L109.135 66.9278Z" fill="#F6B237"/>
<path opacity="0.5" d="M109.135 66.9278V117.389L160.78 87.5701V41.6987L122.377 63.8699L121.053 60.0459L109.135 66.9278Z" fill="black"/>
<path d="M109.135 117.389L111.782 71.5146L163.427 41.6987L160.78 87.5701L109.135 117.389Z" fill="#E0E0E0"/>
<path d="M109.135 117.389L113.105 72.2807L164.75 42.4615L160.78 87.5701L109.135 117.389Z" fill="#F6B237"/>
<path opacity="0.5" d="M109.135 117.389L113.105 72.2807L164.75 42.4615L160.78 87.5701L109.135 117.389Z" fill="black"/>
<path d="M152.822 133.445C143.551 128.092 134.951 122.273 131.026 115.446L142.957 108.558L152.822 133.445Z" fill="#E0E0E0"/>
<path d="M118.403 72.2807V122.739L170.048 92.923V47.0516L131.645 69.2228L130.321 65.3989L118.403 72.2807Z" fill="#F6B237"/>
<path opacity="0.2" d="M118.403 72.2807V122.739L170.048 92.923V47.0516L131.645 69.2228L130.321 65.3989L118.403 72.2807Z" fill="black"/>
<path d="M133.282 87.1985C133.151 87.1985 133.132 87.0485 133.132 86.9605V43.9285C133.142 43.7616 133.191 43.5993 133.275 43.4545C133.358 43.3097 133.475 43.1863 133.614 43.0939L170.889 21.5779C170.94 21.5461 170.998 21.5281 171.058 21.5258C171.189 21.5258 171.208 21.6757 171.208 21.7638V64.7958C171.198 64.9632 171.149 65.126 171.066 65.2714C170.982 65.4167 170.866 65.5407 170.726 65.6336L133.451 87.1496C133.4 87.1799 133.341 87.1967 133.282 87.1985Z" fill="white"/>
<path d="M171.039 21.6757C171.042 21.6996 171.042 21.7236 171.039 21.7475V64.7795C171.028 64.9183 170.987 65.0529 170.917 65.1736C170.848 65.2943 170.752 65.398 170.638 65.4771L133.363 86.9931L133.298 87.0224C133.294 86.9987 133.294 86.9744 133.298 86.9507V43.9187C133.309 43.7805 133.351 43.6465 133.42 43.5264C133.49 43.4063 133.585 43.3031 133.699 43.2243L170.974 21.7083C170.994 21.694 171.018 21.684 171.042 21.679M171.062 21.353C170.973 21.3556 170.886 21.3815 170.811 21.428L133.536 42.944C133.372 43.0516 133.236 43.1962 133.138 43.366C133.04 43.5358 132.983 43.7262 132.972 43.922V86.954C132.972 87.2083 133.099 87.355 133.298 87.355C133.387 87.3526 133.473 87.3268 133.549 87.28L170.824 65.764C170.988 65.6571 171.125 65.5128 171.223 65.3428C171.321 65.1728 171.378 64.982 171.388 64.786V21.754C171.388 21.4997 171.261 21.3497 171.062 21.353Z" fill="#F6B237"/>
<path opacity="0.7" d="M171.039 21.6757C171.042 21.6996 171.042 21.7236 171.039 21.7475V64.7795C171.028 64.9183 170.987 65.0529 170.917 65.1736C170.848 65.2943 170.752 65.398 170.638 65.4771L133.363 86.9931L133.298 87.0224C133.294 86.9987 133.294 86.9744 133.298 86.9507V43.9187C133.309 43.7805 133.351 43.6465 133.42 43.5264C133.49 43.4063 133.585 43.3031 133.699 43.2243L170.974 21.7083C170.994 21.694 171.018 21.684 171.042 21.679M171.062 21.353C170.973 21.3556 170.886 21.3815 170.811 21.428L133.536 42.944C133.372 43.0516 133.236 43.1962 133.138 43.366C133.04 43.5358 132.983 43.7262 132.972 43.922V86.954C132.972 87.2083 133.099 87.355 133.298 87.355C133.387 87.3526 133.473 87.3268 133.549 87.28L170.824 65.764C170.988 65.6571 171.125 65.5128 171.223 65.3428C171.321 65.1728 171.378 64.982 171.388 64.786V21.754C171.388 21.4997 171.261 21.3497 171.062 21.353Z" fill="white"/>
<path d="M136.943 45.5618L150.185 37.9171V53.2065L136.943 60.8512V45.5618Z" fill="#F6B237"/>
<path opacity="0.8" d="M136.943 45.5618L150.185 37.9171V53.2065L136.943 60.8512V45.5618Z" fill="white"/>
<path d="M148.199 41.728V46.3246L147.782 46.5561V45.151C147.782 44.3751 147.153 44.1111 146.37 44.5609L140.76 47.8046C139.981 48.2545 139.348 49.2488 139.348 50.0247V51.4298L138.934 51.6775V47.0907L148.199 41.728Z" fill="white"/>
<path d="M145.65 53.4314C144.972 53.8226 144.421 53.4118 144.421 52.5088V45.151L142.716 46.0768V53.4933C142.716 54.3931 142.165 55.4493 141.487 55.8308L140.255 56.5414V57.0304L146.876 53.2065V52.7207L145.65 53.4314Z" fill="white"/>
<path d="M152.822 37.164C152.822 37.5878 153.203 37.7084 153.67 37.4411L166.553 29.992C166.782 29.8624 166.977 29.6817 167.124 29.4639C167.271 29.2462 167.366 28.9973 167.401 28.7369C167.401 28.3164 167.019 28.1925 166.553 28.4631L153.679 35.8959C153.447 36.0252 153.248 36.2074 153.099 36.4276C152.95 36.6479 152.855 36.9002 152.822 37.164Z" fill="#455A64"/>
<path d="M152.822 41.728C152.822 42.1518 153.203 42.2757 153.67 42.0051L166.543 34.5723C166.772 34.4427 166.967 34.262 167.114 34.0442C167.262 33.8265 167.356 33.5776 167.391 33.3172C167.391 32.8967 167.01 32.7728 166.543 33.0434L153.67 40.4762C153.441 40.6054 153.246 40.7856 153.099 41.0028C152.952 41.2199 152.857 41.4681 152.822 41.728Z" fill="#455A64"/>
<path d="M152.822 46.3246C152.822 46.7484 153.203 46.8723 153.67 46.6017L166.543 39.1689C166.772 39.0397 166.967 38.8594 167.114 38.6423C167.261 38.4251 167.356 38.1769 167.391 37.9171C167.391 37.4933 167.01 37.3694 166.543 37.64L153.67 45.0728C153.441 45.202 153.246 45.3822 153.099 45.5994C152.952 45.8165 152.857 46.0647 152.822 46.3246Z" fill="#455A64"/>
<path d="M152.822 50.9114C152.822 51.3352 153.203 51.4591 153.67 51.1885L166.543 43.7557C166.772 43.6265 166.967 43.4463 167.114 43.2291C167.261 43.0119 167.356 42.7638 167.391 42.5039C167.391 42.0801 167.01 41.9562 166.543 42.2268L153.67 49.6596C153.441 49.7888 153.246 49.9691 153.099 50.1862C152.952 50.4034 152.857 50.6516 152.822 50.9114Z" fill="#455A64"/>
<path d="M136.943 64.6751C136.943 65.0989 137.321 65.2228 137.79 64.9522L166.553 48.3262C166.782 48.1974 166.977 48.0173 167.124 47.8C167.271 47.5828 167.366 47.3344 167.401 47.0744C167.401 46.6506 167.019 46.53 166.553 46.7973L137.79 63.4233C137.561 63.552 137.366 63.732 137.219 63.9493C137.072 64.1665 136.977 64.415 136.943 64.6751Z" fill="#455A64"/>
<path d="M136.943 69.262C136.943 69.6858 137.321 69.8096 137.79 69.5391L166.553 52.9326C166.782 52.8031 166.977 52.6223 167.124 52.4046C167.271 52.1868 167.366 51.938 167.401 51.6775C167.401 51.257 167.019 51.1331 166.553 51.4037L137.79 68.0101C137.561 68.1388 137.366 68.3188 137.219 68.5361C137.072 68.7534 136.977 69.0019 136.943 69.262Z" fill="#455A64"/>
<path d="M136.943 73.852C136.943 74.2726 137.321 74.3965 137.79 74.1259L166.553 57.5194C166.782 57.3899 166.977 57.2091 167.124 56.9914C167.271 56.7736 167.366 56.5248 167.401 56.2643C167.401 55.8438 167.019 55.7199 166.553 55.9905L137.79 72.5969C137.561 72.7259 137.365 72.9065 137.218 73.1244C137.071 73.3422 136.977 73.5914 136.943 73.852Z" fill="#455A64"/>
<path d="M118.403 122.739L127.671 82.2205L179.316 52.4012L170.048 92.923L118.403 122.739Z" fill="#F6B237"/>
<path d="M131.039 85.3925V115.446L142.957 108.565V78.5139L131.039 85.3925Z" fill="#F6B237"/>
<path opacity="0.2" d="M131.039 85.3925V115.446L142.957 108.565V78.5139L131.039 85.3925Z" fill="black"/>
<path d="M152.845 133.249C151.831 132.493 142.057 125.024 137.089 114.341C131.802 102.983 131.808 89.7348 131.808 84.7502V84.5937L167.238 64.1405C167.238 69.1707 167.238 82.4389 172.548 93.8358C177.402 104.268 186.801 111.642 188.291 112.77L152.845 133.249Z" fill="white"/>
<path d="M167.075 64.4339C167.075 69.676 167.176 82.6899 172.402 93.9173C177.093 103.991 186.012 111.234 187.997 112.763L152.855 133.054C151.482 132.02 142.077 124.675 137.239 114.286C131.958 102.961 131.958 89.738 131.958 84.76V84.6981L167.062 64.4306M167.388 63.8667L131.632 84.5122C131.632 89.2034 131.534 102.833 136.93 114.423C142.24 125.797 152.822 133.445 152.822 133.445L188.587 112.796C188.587 112.796 177.992 105.148 172.698 93.7739C167.3 82.1846 167.401 68.5545 167.401 63.8634L167.388 63.8667Z" fill="#F6B237"/>
<path opacity="0.7" d="M167.075 64.4339C167.075 69.676 167.176 82.6899 172.402 93.9173C177.093 103.991 186.012 111.234 187.997 112.763L152.855 133.054C151.482 132.02 142.077 124.675 137.239 114.286C131.958 102.961 131.958 89.738 131.958 84.76V84.6981L167.062 64.4306M167.388 63.8667L131.632 84.5122C131.632 89.2034 131.534 102.833 136.93 114.423C142.24 125.797 152.822 133.445 152.822 133.445L188.587 112.796C188.587 112.796 177.992 105.148 172.698 93.7739C167.3 82.1846 167.401 68.5545 167.401 63.8634L167.388 63.8667Z" fill="white"/>
<path d="M163.355 70.7909L152.049 77.3109C151.823 77.4355 151.63 77.6128 151.487 77.828C151.344 78.0431 151.255 78.2896 151.228 78.5464C151.244 78.9605 151.639 79.0778 152.105 78.8072L163.414 72.2872C163.637 72.1638 163.828 71.9888 163.971 71.7768C164.113 71.5647 164.203 71.3217 164.232 71.068C164.212 70.6377 163.824 70.5203 163.355 70.7909Z" fill="#455A64"/>
<path d="M163.596 75.2408L152.291 81.7608C152.067 81.8811 151.877 82.0559 151.74 82.2691C151.602 82.4822 151.52 82.7268 151.502 82.9801C151.538 83.381 151.948 83.4886 152.415 83.218L163.723 76.698C163.946 76.5783 164.134 76.4038 164.271 76.191C164.407 75.9783 164.487 75.7342 164.503 75.4821C164.47 75.0778 164.066 74.98 163.596 75.2408Z" fill="#455A64"/>
<path d="M164.049 79.5668L152.741 86.0868C152.274 86.3574 151.935 86.8953 151.991 87.2833C152.046 87.6712 152.473 87.7723 152.943 87.5017L164.252 80.9817C164.718 80.7111 165.05 80.1765 164.992 79.7885C164.933 79.4006 164.516 79.2963 164.049 79.5668Z" fill="#455A64"/>
<path d="M164.728 83.7625L153.419 90.2825C152.952 90.553 152.63 91.0811 152.708 91.4593C152.786 91.8375 153.229 91.9222 153.686 91.6517L164.992 85.1317C165.461 84.8611 165.774 84.3362 165.696 83.9581C165.617 83.5799 165.21 83.4919 164.728 83.7625Z" fill="#455A64"/>
<path d="M165.647 87.8179L154.338 94.3379C153.872 94.6085 153.569 95.1235 153.686 95.4854C153.803 95.8473 154.25 95.9288 154.716 95.6582L166.025 89.1382C166.494 88.8676 166.788 88.3558 166.677 87.9907C166.566 87.6255 166.113 87.5473 165.647 87.8179Z" fill="#455A64"/>
<path d="M166.84 91.7266L139.28 107.639C138.814 107.909 138.53 108.411 138.657 108.76C138.784 109.109 139.27 109.174 139.736 108.904L167.296 92.9915C167.766 92.7209 168.036 92.2222 167.909 91.8701C167.782 91.518 167.29 91.4561 166.84 91.7266Z" fill="#455A64"/>
<path d="M168.291 95.4593L140.734 111.371C140.264 111.642 140.007 112.131 140.163 112.463C140.32 112.796 140.815 112.848 141.291 112.578L168.851 96.6655C169.321 96.3949 169.572 95.9059 169.415 95.5734C169.259 95.2409 168.76 95.192 168.291 95.4593Z" fill="#455A64"/>
<path d="M170.1 99.016L142.54 114.928C142.071 115.199 141.839 115.675 142.025 115.991C142.211 116.307 142.742 116.34 143.212 116.069L170.752 100.157C171.218 99.8897 171.443 99.417 171.257 99.1007C171.071 98.7845 170.556 98.7454 170.1 99.016Z" fill="#455A64"/>
<path d="M172.209 102.38L144.652 118.289C144.183 118.56 143.974 119.026 144.186 119.323C144.398 119.619 144.956 119.649 145.425 119.375L172.982 103.463C173.451 103.192 173.653 102.732 173.441 102.432C173.23 102.133 172.679 102.11 172.209 102.38Z" fill="#455A64"/>
<path d="M174.615 105.578L147.055 121.487C146.589 121.758 146.403 122.211 146.638 122.495C146.873 122.778 147.45 122.791 147.919 122.521L175.479 106.602C175.945 106.331 176.131 105.885 175.89 105.601C175.649 105.318 175.085 105.298 174.615 105.578Z" fill="#455A64"/>
<path d="M177.272 108.623L149.722 124.532C149.252 124.803 149.07 125.246 149.344 125.51C149.617 125.774 150.198 125.781 150.664 125.51L178.224 109.598C178.693 109.327 178.856 108.891 178.596 108.62C178.335 108.349 177.748 108.356 177.272 108.623Z" fill="#455A64"/>
<path d="M180.206 111.534L152.646 127.443C152.18 127.714 152.027 128.147 152.32 128.405C152.613 128.662 153.213 128.653 153.683 128.382L181.22 112.47C181.686 112.199 181.833 111.776 181.546 111.515C181.259 111.254 180.662 111.264 180.206 111.534Z" fill="#455A64"/>
<path d="M147.952 79.6874L134.951 87.1854C135.094 91.8961 135.632 98.69 137.601 105.533L150.605 98.0347C148.633 91.192 148.095 84.3949 147.952 79.6874Z" fill="#F6B237"/>
<path opacity="0.8" d="M147.952 79.6874L134.951 87.1854C135.094 91.8961 135.632 98.69 137.601 105.533L150.605 98.0347C148.633 91.192 148.095 84.3949 147.952 79.6874Z" fill="white"/>
<path d="M140.251 86.1488C140.269 85.8447 140.222 85.5404 140.113 85.256C140.004 84.9716 139.835 84.7136 139.619 84.4992L134.951 87.192C134.99 88.4373 135.055 89.8293 135.169 91.3289C135.776 91.3988 136.391 91.2852 136.933 91.0029C138.768 90.1618 140.251 87.9809 140.251 86.1488Z" fill="#F6B237"/>
<path opacity="0.6" d="M140.251 86.1488C140.269 85.8447 140.222 85.5404 140.113 85.256C140.004 84.9716 139.835 84.7136 139.619 84.4992L134.951 87.192C134.99 88.4373 135.055 89.8293 135.169 91.3289C135.776 91.3988 136.391 91.2852 136.933 91.0029C138.768 90.1618 140.251 87.9809 140.251 86.1488Z" fill="white"/>
<path d="M149.5 93.5359C148.633 92.4438 146.869 89.0697 146.116 87.5995C146.087 87.5413 146.04 87.4934 145.983 87.4619C145.926 87.4304 145.861 87.4168 145.796 87.4228C145.731 87.4287 145.669 87.454 145.619 87.4954C145.568 87.5368 145.532 87.5923 145.513 87.6549C144.698 90.4397 144.225 93.3133 144.105 96.2124C143.019 95.3504 142.086 94.3124 141.344 93.1415C141.312 93.0961 141.268 93.0607 141.217 93.0395C141.166 93.0183 141.11 93.0121 141.055 93.0217C141.001 93.0313 140.95 93.0562 140.909 93.0936C140.869 93.131 140.839 93.1793 140.825 93.2327C139.404 98.7063 140.118 104.092 140.118 104.092L150.605 98.0347C150.168 96.5221 149.806 95.016 149.5 93.5359Z" fill="#F6B237"/>
<path opacity="0.6" d="M149.5 93.5359C148.633 92.4438 146.869 89.0697 146.116 87.5995C146.087 87.5413 146.04 87.4934 145.983 87.4619C145.926 87.4304 145.861 87.4168 145.796 87.4228C145.731 87.4287 145.669 87.454 145.619 87.4954C145.568 87.5368 145.532 87.5923 145.513 87.6549C144.698 90.4397 144.225 93.3133 144.105 96.2124C143.019 95.3504 142.086 94.3124 141.344 93.1415C141.312 93.0961 141.268 93.0607 141.217 93.0395C141.166 93.0183 141.11 93.0121 141.055 93.0217C141.001 93.0313 140.95 93.0562 140.909 93.0936C140.869 93.131 140.839 93.1793 140.825 93.2327C139.404 98.7063 140.118 104.092 140.118 104.092L150.605 98.0347C150.168 96.5221 149.806 95.016 149.5 93.5359Z" fill="white"/>
<path d="M53.5321 171.616H50.5401C50.4761 171.216 50.3801 170.464 49.4521 170.464C48.9241 170.464 48.4121 170.832 48.4121 171.392C48.4121 172.096 48.7321 172.24 50.8601 173.2C53.0681 174.192 53.6281 175.216 53.6281 176.592C53.6281 178.32 52.6361 180.224 49.5001 180.224C46.0761 180.224 45.2281 177.984 45.2281 176.464V176.08H48.2361C48.2361 177.456 49.0841 177.696 49.4681 177.696C50.1881 177.696 50.6201 177.104 50.6201 176.56C50.6201 175.776 50.1241 175.584 48.3001 174.816C47.4681 174.48 45.4041 173.648 45.4041 171.424C45.4041 169.2 47.5641 167.936 49.5481 167.936C50.7161 167.936 51.9801 168.368 52.7481 169.28C53.4521 170.144 53.5001 170.944 53.5321 171.616ZM60.8 177.216H63.52C63.088 178.208 62.464 178.976 61.712 179.488C60.976 180.016 60.096 180.288 59.184 180.288C56.64 180.288 54.48 178.224 54.48 175.584C54.48 173.104 56.432 170.816 59.136 170.816C61.84 170.816 63.824 172.96 63.824 175.664C63.824 176.016 63.792 176.16 63.76 176.368H57.104C57.264 177.424 58.144 178.048 59.184 178.048C60 178.048 60.432 177.68 60.8 177.216ZM57.136 174.576H61.168C61.056 174.048 60.528 173.056 59.152 173.056C57.776 173.056 57.248 174.048 57.136 174.576ZM60.992 166.432L61.84 168.32L57.904 170.064L57.152 168.496L60.992 166.432ZM65.3038 180V168.16H67.9598V180H65.3038ZM75.7219 177.216H78.4419C78.0099 178.208 77.3859 178.976 76.6339 179.488C75.8979 180.016 75.0179 180.288 74.1059 180.288C71.5619 180.288 69.4019 178.224 69.4019 175.584C69.4019 173.104 71.3539 170.816 74.0579 170.816C76.7619 170.816 78.7459 172.96 78.7459 175.664C78.7459 176.016 78.7139 176.16 78.6819 176.368H72.0259C72.1859 177.424 73.0659 178.048 74.1059 178.048C74.9219 178.048 75.3539 177.68 75.7219 177.216ZM72.0579 174.576H76.0899C75.9779 174.048 75.4499 173.056 74.0739 173.056C72.6979 173.056 72.1699 174.048 72.0579 174.576ZM86.4976 176.624H89.2016C88.7216 178.64 86.9456 180.288 84.5456 180.288C81.8576 180.288 79.7936 178.176 79.7936 175.536C79.7936 172.928 81.8256 170.816 84.4816 170.816C86.8336 170.816 88.7376 172.368 89.1856 174.544H86.4976C86.2096 173.936 85.6816 173.296 84.5776 173.296C83.3136 173.232 82.4656 174.272 82.4656 175.552C82.4656 176.848 83.3136 177.808 84.5776 177.808C85.6816 177.808 86.2096 177.168 86.4976 176.624ZM93.8471 168.16V171.12H95.1271V173.136H93.8471V180H91.1911V173.136H89.8791V171.12H91.1911V168.16H93.8471ZM98.9285 171.12V180H96.2725V171.12H98.9285ZM98.9285 168.16V170.176H96.2725V168.16H98.9285ZM100.435 175.552C100.435 173.376 101.987 170.832 105.219 170.832C108.451 170.832 110.003 173.376 110.003 175.552C110.003 177.728 108.451 180.272 105.219 180.272C101.987 180.272 100.435 177.728 100.435 175.552ZM103.091 175.552C103.091 176.848 104.067 177.792 105.219 177.792C106.371 177.792 107.347 176.848 107.347 175.552C107.347 174.256 106.371 173.312 105.219 173.312C104.067 173.312 103.091 174.256 103.091 175.552ZM111.507 180V171.12H113.987V172.064H114.019C114.291 171.632 114.851 170.816 116.435 170.816C117.283 170.816 118.227 171.168 118.707 171.584C119.187 172 119.731 172.704 119.731 174.448V180H117.075V175.152C117.075 174.528 117.075 173.312 115.683 173.312C114.163 173.312 114.163 174.624 114.163 175.168V180H111.507Z" fill="#F6B237"/>
<path d="M128.078 174.867V180H126.75V168.562H129.148C129.987 168.562 130.604 168.607 131 168.695C131.396 168.784 131.74 168.93 132.031 169.133C132.396 169.393 132.68 169.75 132.883 170.203C133.091 170.656 133.195 171.159 133.195 171.711C133.195 172.263 133.091 172.766 132.883 173.219C132.68 173.672 132.396 174.029 132.031 174.289C131.74 174.497 131.396 174.646 131 174.734C130.609 174.823 129.992 174.867 129.148 174.867H128.766H128.078ZM128.078 173.633H128.766C129.932 173.633 130.716 173.497 131.117 173.227C131.523 172.951 131.727 172.471 131.727 171.789C131.727 171.06 131.518 170.547 131.102 170.25C130.69 169.953 129.911 169.805 128.766 169.805H128.078V173.633ZM134.484 180V172.852H135.57V174.336C135.898 173.716 136.247 173.273 136.617 173.008C136.987 172.742 137.438 172.609 137.969 172.609C138.115 172.609 138.255 172.622 138.391 172.648C138.526 172.669 138.661 172.703 138.797 172.75L138.391 173.852C138.25 173.805 138.117 173.771 137.992 173.75C137.867 173.724 137.747 173.711 137.633 173.711C136.987 173.711 136.503 173.945 136.18 174.414C135.857 174.878 135.695 175.578 135.695 176.516V180H134.484ZM145.164 175.617C145.122 174.987 144.911 174.503 144.531 174.164C144.156 173.82 143.641 173.648 142.984 173.648C142.391 173.648 141.896 173.828 141.5 174.188C141.104 174.542 140.875 175.018 140.812 175.617H145.164ZM146.477 176.609H140.812V176.719C140.812 177.484 141.031 178.104 141.469 178.578C141.906 179.047 142.477 179.281 143.18 179.281C143.659 179.281 144.091 179.154 144.477 178.898C144.862 178.638 145.203 178.247 145.5 177.727L146.43 178.352C146.07 178.997 145.612 179.484 145.055 179.812C144.497 180.141 143.852 180.305 143.117 180.305C142.029 180.305 141.148 179.945 140.477 179.227C139.805 178.508 139.469 177.565 139.469 176.398C139.469 175.279 139.802 174.362 140.469 173.648C141.135 172.935 141.992 172.578 143.039 172.578C144.096 172.578 144.932 172.917 145.547 173.594C146.167 174.271 146.477 175.195 146.477 176.367V176.609ZM141.836 171.727L143.43 169.008H145L142.773 171.727H141.836ZM153.812 178.305V179.727C153.49 179.919 153.125 180.062 152.719 180.156C152.318 180.255 151.883 180.305 151.414 180.305C150.31 180.305 149.419 179.956 148.742 179.258C148.07 178.555 147.734 177.633 147.734 176.492C147.734 175.346 148.083 174.411 148.781 173.688C149.479 172.958 150.372 172.594 151.461 172.594C151.857 172.594 152.242 172.635 152.617 172.719C152.997 172.802 153.354 172.924 153.688 173.086V174.398C153.375 174.195 153.052 174.042 152.719 173.938C152.385 173.828 152.047 173.773 151.703 173.773C150.901 173.773 150.258 174.026 149.773 174.531C149.289 175.031 149.047 175.698 149.047 176.531C149.047 177.266 149.289 177.88 149.773 178.375C150.263 178.87 150.875 179.117 151.609 179.117C151.979 179.117 152.341 179.052 152.695 178.922C153.049 178.792 153.422 178.586 153.812 178.305ZM155.289 169.406C155.289 169.161 155.375 168.953 155.547 168.781C155.724 168.604 155.938 168.516 156.188 168.516C156.432 168.516 156.641 168.604 156.812 168.781C156.99 168.958 157.078 169.172 157.078 169.422C157.078 169.667 156.992 169.875 156.82 170.047C156.648 170.219 156.438 170.305 156.188 170.305C155.938 170.305 155.724 170.219 155.547 170.047C155.375 169.875 155.289 169.661 155.289 169.406ZM155.578 180V172.852H156.812V180H155.578ZM158.633 178.797L159.68 178.094C159.878 178.474 160.128 178.76 160.43 178.953C160.732 179.141 161.089 179.234 161.5 179.234C161.901 179.234 162.224 179.135 162.469 178.938C162.719 178.74 162.844 178.479 162.844 178.156C162.844 177.906 162.758 177.698 162.586 177.531C162.419 177.365 162.13 177.211 161.719 177.07C161.677 177.055 161.609 177.031 161.516 177C159.776 176.401 158.906 175.651 158.906 174.75C158.906 174.115 159.141 173.596 159.609 173.195C160.078 172.794 160.688 172.594 161.438 172.594C162.057 172.594 162.589 172.719 163.031 172.969C163.474 173.214 163.792 173.562 163.984 174.016L162.992 174.625C162.846 174.297 162.63 174.044 162.344 173.867C162.062 173.69 161.734 173.602 161.359 173.602C161 173.602 160.706 173.703 160.477 173.906C160.253 174.104 160.141 174.359 160.141 174.672C160.141 175.109 160.615 175.477 161.562 175.773C161.74 175.831 161.88 175.875 161.984 175.906C162.76 176.156 163.299 176.443 163.602 176.766C163.909 177.083 164.062 177.505 164.062 178.031C164.062 178.708 163.82 179.258 163.336 179.68C162.857 180.096 162.229 180.305 161.453 180.305C160.786 180.305 160.219 180.18 159.75 179.93C159.286 179.68 158.914 179.302 158.633 178.797ZM170.977 175.617C170.935 174.987 170.724 174.503 170.344 174.164C169.969 173.82 169.453 173.648 168.797 173.648C168.203 173.648 167.708 173.828 167.312 174.188C166.917 174.542 166.688 175.018 166.625 175.617H170.977ZM172.289 176.609H166.625V176.719C166.625 177.484 166.844 178.104 167.281 178.578C167.719 179.047 168.289 179.281 168.992 179.281C169.471 179.281 169.904 179.154 170.289 178.898C170.674 178.638 171.016 178.247 171.312 177.727L172.242 178.352C171.883 178.997 171.424 179.484 170.867 179.812C170.31 180.141 169.664 180.305 168.93 180.305C167.841 180.305 166.961 179.945 166.289 179.227C165.617 178.508 165.281 177.565 165.281 176.398C165.281 175.279 165.615 174.362 166.281 173.648C166.948 172.935 167.805 172.578 168.852 172.578C169.909 172.578 170.745 172.917 171.359 173.594C171.979 174.271 172.289 175.195 172.289 176.367V176.609ZM173.836 182.273L175.32 178.016L176.648 178.477L174.734 182.625L173.836 182.273ZM183.703 180V168.562H186.391C187.156 168.562 187.716 168.607 188.07 168.695C188.43 168.779 188.745 168.924 189.016 169.133C189.354 169.398 189.617 169.755 189.805 170.203C189.992 170.646 190.086 171.138 190.086 171.68C190.086 172.617 189.823 173.331 189.297 173.82C188.776 174.305 188.01 174.547 187 174.547H186.758L191.125 180H189.398L185.227 174.547H185.031V180H183.703ZM185.031 169.711V173.539H186.07C187.133 173.539 187.844 173.404 188.203 173.133C188.562 172.857 188.742 172.378 188.742 171.695C188.742 170.961 188.557 170.448 188.188 170.156C187.818 169.859 187.112 169.711 186.07 169.711H185.031ZM197.211 175.617C197.169 174.987 196.958 174.503 196.578 174.164C196.203 173.82 195.688 173.648 195.031 173.648C194.438 173.648 193.943 173.828 193.547 174.188C193.151 174.542 192.922 175.018 192.859 175.617H197.211ZM198.523 176.609H192.859V176.719C192.859 177.484 193.078 178.104 193.516 178.578C193.953 179.047 194.523 179.281 195.227 179.281C195.706 179.281 196.138 179.154 196.523 178.898C196.909 178.638 197.25 178.247 197.547 177.727L198.477 178.352C198.117 178.997 197.659 179.484 197.102 179.812C196.544 180.141 195.898 180.305 195.164 180.305C194.076 180.305 193.195 179.945 192.523 179.227C191.852 178.508 191.516 177.565 191.516 176.398C191.516 175.279 191.849 174.362 192.516 173.648C193.182 172.935 194.039 172.578 195.086 172.578C196.143 172.578 196.979 172.917 197.594 173.594C198.214 174.271 198.523 175.195 198.523 176.367V176.609ZM193.883 171.727L195.477 169.008H197.047L194.82 171.727H193.883ZM199.617 178.797L200.664 178.094C200.862 178.474 201.112 178.76 201.414 178.953C201.716 179.141 202.073 179.234 202.484 179.234C202.885 179.234 203.208 179.135 203.453 178.938C203.703 178.74 203.828 178.479 203.828 178.156C203.828 177.906 203.742 177.698 203.57 177.531C203.404 177.365 203.115 177.211 202.703 177.07C202.661 177.055 202.594 177.031 202.5 177C200.76 176.401 199.891 175.651 199.891 174.75C199.891 174.115 200.125 173.596 200.594 173.195C201.062 172.794 201.672 172.594 202.422 172.594C203.042 172.594 203.573 172.719 204.016 172.969C204.458 173.214 204.776 173.562 204.969 174.016L203.977 174.625C203.831 174.297 203.615 174.044 203.328 173.867C203.047 173.69 202.719 173.602 202.344 173.602C201.984 173.602 201.69 173.703 201.461 173.906C201.237 174.104 201.125 174.359 201.125 174.672C201.125 175.109 201.599 175.477 202.547 175.773C202.724 175.831 202.865 175.875 202.969 175.906C203.745 176.156 204.284 176.443 204.586 176.766C204.893 177.083 205.047 177.505 205.047 178.031C205.047 178.708 204.805 179.258 204.32 179.68C203.841 180.096 203.214 180.305 202.438 180.305C201.771 180.305 201.203 180.18 200.734 179.93C200.271 179.68 199.898 179.302 199.617 178.797ZM208.039 172.852V176.367C208.039 177.393 208.19 178.112 208.492 178.523C208.799 178.93 209.315 179.133 210.039 179.133C210.763 179.133 211.273 178.932 211.57 178.531C211.872 178.125 212.023 177.404 212.023 176.367V172.852H213.273V177.023C213.273 178.102 212.997 178.919 212.445 179.477C211.893 180.029 211.081 180.305 210.008 180.305C208.945 180.305 208.138 180.026 207.586 179.469C207.034 178.911 206.758 178.096 206.758 177.023V172.852H208.039ZM215.703 180V167.891H216.953V180H215.703ZM219.703 173.859H218.391V172.852H219.703V169.969H220.953V172.852H222.266V173.859H220.953V180H219.703V173.859ZM229.125 176.492C229.125 175.685 228.904 175.036 228.461 174.547C228.023 174.052 227.451 173.805 226.742 173.805C226.008 173.805 225.435 174.031 225.023 174.484C224.612 174.938 224.406 175.57 224.406 176.383C224.406 177.247 224.612 177.914 225.023 178.383C225.44 178.852 226.029 179.086 226.789 179.086C227.518 179.086 228.089 178.859 228.5 178.406C228.917 177.948 229.125 177.31 229.125 176.492ZM230.312 172.852V180H229.125V178.703C228.839 179.224 228.471 179.622 228.023 179.898C227.581 180.169 227.083 180.305 226.531 180.305C225.505 180.305 224.677 179.953 224.047 179.25C223.422 178.542 223.109 177.607 223.109 176.445C223.109 175.268 223.414 174.333 224.023 173.641C224.633 172.943 225.448 172.594 226.469 172.594C227.068 172.594 227.586 172.729 228.023 173C228.466 173.266 228.823 173.664 229.094 174.195V172.852H230.312ZM232.953 173.859H231.641V172.852H232.953V169.969H234.203V172.852H235.516V173.859H234.203V180H232.953V173.859ZM236.148 178.797L237.195 178.094C237.393 178.474 237.643 178.76 237.945 178.953C238.247 179.141 238.604 179.234 239.016 179.234C239.417 179.234 239.74 179.135 239.984 178.938C240.234 178.74 240.359 178.479 240.359 178.156C240.359 177.906 240.273 177.698 240.102 177.531C239.935 177.365 239.646 177.211 239.234 177.07C239.193 177.055 239.125 177.031 239.031 177C237.292 176.401 236.422 175.651 236.422 174.75C236.422 174.115 236.656 173.596 237.125 173.195C237.594 172.794 238.203 172.594 238.953 172.594C239.573 172.594 240.104 172.719 240.547 172.969C240.99 173.214 241.307 173.562 241.5 174.016L240.508 174.625C240.362 174.297 240.146 174.044 239.859 173.867C239.578 173.69 239.25 173.602 238.875 173.602C238.516 173.602 238.221 173.703 237.992 173.906C237.768 174.104 237.656 174.359 237.656 174.672C237.656 175.109 238.13 175.477 239.078 175.773C239.255 175.831 239.396 175.875 239.5 175.906C240.276 176.156 240.815 176.443 241.117 176.766C241.424 177.083 241.578 177.505 241.578 178.031C241.578 178.708 241.336 179.258 240.852 179.68C240.372 180.096 239.745 180.305 238.969 180.305C238.302 180.305 237.734 180.18 237.266 179.93C236.802 179.68 236.43 179.302 236.148 178.797ZM99.3438 199V187.562H100.703V199H99.3438ZM113.297 199V194.789C113.297 194.065 113.151 193.529 112.859 193.18C112.568 192.826 112.12 192.648 111.516 192.648C111.188 192.648 110.883 192.716 110.602 192.852C110.326 192.982 110.091 193.169 109.898 193.414C109.758 193.602 109.656 193.82 109.594 194.07C109.531 194.32 109.5 194.732 109.5 195.305V199H108.32V194.789C108.32 194.065 108.174 193.529 107.883 193.18C107.591 192.826 107.143 192.648 106.539 192.648C106.211 192.648 105.904 192.716 105.617 192.852C105.336 192.982 105.099 193.169 104.906 193.414C104.771 193.596 104.672 193.807 104.609 194.047C104.552 194.286 104.523 194.706 104.523 195.305V199H103.344V191.852H104.539V192.953C104.836 192.495 105.19 192.154 105.602 191.93C106.013 191.706 106.487 191.594 107.023 191.594C107.602 191.594 108.094 191.719 108.5 191.969C108.906 192.214 109.214 192.573 109.422 193.047C109.729 192.557 110.091 192.193 110.508 191.953C110.93 191.714 111.417 191.594 111.969 191.594C112.766 191.594 113.388 191.818 113.836 192.266C114.284 192.714 114.508 193.336 114.508 194.133V199H113.297ZM118.102 195.445C118.102 196.247 118.323 196.891 118.766 197.375C119.208 197.859 119.794 198.102 120.523 198.102C121.237 198.102 121.797 197.88 122.203 197.438C122.615 196.995 122.82 196.38 122.82 195.594C122.82 194.714 122.615 194.023 122.203 193.523C121.797 193.023 121.229 192.773 120.5 192.773C119.755 192.773 119.169 193.01 118.742 193.484C118.315 193.958 118.102 194.612 118.102 195.445ZM116.922 202.484V191.852H118.086V193.195C118.362 192.68 118.727 192.284 119.18 192.008C119.633 191.732 120.138 191.594 120.695 191.594C121.727 191.594 122.555 191.945 123.18 192.648C123.805 193.352 124.117 194.284 124.117 195.445C124.117 196.628 123.81 197.568 123.195 198.266C122.586 198.958 121.768 199.305 120.742 199.305C120.154 199.305 119.641 199.172 119.203 198.906C118.766 198.635 118.409 198.234 118.133 197.703V202.484H116.922ZM131.148 194.617C131.107 193.987 130.896 193.503 130.516 193.164C130.141 192.82 129.625 192.648 128.969 192.648C128.375 192.648 127.88 192.828 127.484 193.188C127.089 193.542 126.859 194.018 126.797 194.617H131.148ZM132.461 195.609H126.797V195.719C126.797 196.484 127.016 197.104 127.453 197.578C127.891 198.047 128.461 198.281 129.164 198.281C129.643 198.281 130.076 198.154 130.461 197.898C130.846 197.638 131.188 197.247 131.484 196.727L132.414 197.352C132.055 197.997 131.596 198.484 131.039 198.812C130.482 199.141 129.836 199.305 129.102 199.305C128.013 199.305 127.133 198.945 126.461 198.227C125.789 197.508 125.453 196.565 125.453 195.398C125.453 194.279 125.786 193.362 126.453 192.648C127.12 191.935 127.977 191.578 129.023 191.578C130.081 191.578 130.917 191.917 131.531 192.594C132.151 193.271 132.461 194.195 132.461 195.367V195.609ZM139.797 197.305V198.727C139.474 198.919 139.109 199.062 138.703 199.156C138.302 199.255 137.867 199.305 137.398 199.305C136.294 199.305 135.404 198.956 134.727 198.258C134.055 197.555 133.719 196.633 133.719 195.492C133.719 194.346 134.068 193.411 134.766 192.688C135.464 191.958 136.357 191.594 137.445 191.594C137.841 191.594 138.227 191.635 138.602 191.719C138.982 191.802 139.339 191.924 139.672 192.086V193.398C139.359 193.195 139.036 193.042 138.703 192.938C138.37 192.828 138.031 192.773 137.688 192.773C136.885 192.773 136.242 193.026 135.758 193.531C135.273 194.031 135.031 194.698 135.031 195.531C135.031 196.266 135.273 196.88 135.758 197.375C136.247 197.87 136.859 198.117 137.594 198.117C137.964 198.117 138.326 198.052 138.68 197.922C139.034 197.792 139.406 197.586 139.797 197.305ZM146.984 197.305V198.727C146.661 198.919 146.297 199.062 145.891 199.156C145.49 199.255 145.055 199.305 144.586 199.305C143.482 199.305 142.591 198.956 141.914 198.258C141.242 197.555 140.906 196.633 140.906 195.492C140.906 194.346 141.255 193.411 141.953 192.688C142.651 191.958 143.544 191.594 144.633 191.594C145.029 191.594 145.414 191.635 145.789 191.719C146.169 191.802 146.526 191.924 146.859 192.086V193.398C146.547 193.195 146.224 193.042 145.891 192.938C145.557 192.828 145.219 192.773 144.875 192.773C144.073 192.773 143.43 193.026 142.945 193.531C142.461 194.031 142.219 194.698 142.219 195.531C142.219 196.266 142.461 196.88 142.945 197.375C143.435 197.87 144.047 198.117 144.781 198.117C145.151 198.117 145.513 198.052 145.867 197.922C146.221 197.792 146.594 197.586 146.984 197.305ZM154.156 195.492C154.156 194.685 153.935 194.036 153.492 193.547C153.055 193.052 152.482 192.805 151.773 192.805C151.039 192.805 150.466 193.031 150.055 193.484C149.643 193.938 149.438 194.57 149.438 195.383C149.438 196.247 149.643 196.914 150.055 197.383C150.471 197.852 151.06 198.086 151.82 198.086C152.549 198.086 153.12 197.859 153.531 197.406C153.948 196.948 154.156 196.31 154.156 195.492ZM155.344 191.852V199H154.156V197.703C153.87 198.224 153.503 198.622 153.055 198.898C152.612 199.169 152.115 199.305 151.562 199.305C150.536 199.305 149.708 198.953 149.078 198.25C148.453 197.542 148.141 196.607 148.141 195.445C148.141 194.268 148.445 193.333 149.055 192.641C149.664 191.943 150.479 191.594 151.5 191.594C152.099 191.594 152.617 191.729 153.055 192C153.497 192.266 153.854 192.664 154.125 193.195V191.852H155.344ZM158.961 195.461C158.961 196.294 159.174 196.945 159.602 197.414C160.029 197.883 160.615 198.117 161.359 198.117C162.089 198.117 162.659 197.87 163.07 197.375C163.487 196.875 163.695 196.185 163.695 195.305C163.695 194.523 163.492 193.911 163.086 193.469C162.68 193.026 162.117 192.805 161.398 192.805C160.669 192.805 160.081 193.049 159.633 193.539C159.185 194.023 158.961 194.664 158.961 195.461ZM157.797 186.891H159.008V193.195C159.284 192.664 159.641 192.266 160.078 192C160.516 191.729 161.029 191.594 161.617 191.594C162.643 191.594 163.461 191.943 164.07 192.641C164.685 193.339 164.992 194.273 164.992 195.445C164.992 196.607 164.68 197.542 164.055 198.25C163.43 198.953 162.602 199.305 161.57 199.305C161.018 199.305 160.516 199.167 160.062 198.891C159.609 198.609 159.242 198.214 158.961 197.703V199H157.797V186.891ZM167.016 199V186.891H168.266V199H167.016ZM175.898 194.617C175.857 193.987 175.646 193.503 175.266 193.164C174.891 192.82 174.375 192.648 173.719 192.648C173.125 192.648 172.63 192.828 172.234 193.188C171.839 193.542 171.609 194.018 171.547 194.617H175.898ZM177.211 195.609H171.547V195.719C171.547 196.484 171.766 197.104 172.203 197.578C172.641 198.047 173.211 198.281 173.914 198.281C174.393 198.281 174.826 198.154 175.211 197.898C175.596 197.638 175.938 197.247 176.234 196.727L177.164 197.352C176.805 197.997 176.346 198.484 175.789 198.812C175.232 199.141 174.586 199.305 173.852 199.305C172.763 199.305 171.883 198.945 171.211 198.227C170.539 197.508 170.203 196.565 170.203 195.398C170.203 194.279 170.536 193.362 171.203 192.648C171.87 191.935 172.727 191.578 173.773 191.578C174.831 191.578 175.667 191.917 176.281 192.594C176.901 193.271 177.211 194.195 177.211 195.367V195.609ZM178.305 197.797L179.352 197.094C179.549 197.474 179.799 197.76 180.102 197.953C180.404 198.141 180.76 198.234 181.172 198.234C181.573 198.234 181.896 198.135 182.141 197.938C182.391 197.74 182.516 197.479 182.516 197.156C182.516 196.906 182.43 196.698 182.258 196.531C182.091 196.365 181.802 196.211 181.391 196.07C181.349 196.055 181.281 196.031 181.188 196C179.448 195.401 178.578 194.651 178.578 193.75C178.578 193.115 178.812 192.596 179.281 192.195C179.75 191.794 180.359 191.594 181.109 191.594C181.729 191.594 182.26 191.719 182.703 191.969C183.146 192.214 183.464 192.562 183.656 193.016L182.664 193.625C182.518 193.297 182.302 193.044 182.016 192.867C181.734 192.69 181.406 192.602 181.031 192.602C180.672 192.602 180.378 192.703 180.148 192.906C179.924 193.104 179.812 193.359 179.812 193.672C179.812 194.109 180.286 194.477 181.234 194.773C181.411 194.831 181.552 194.875 181.656 194.906C182.432 195.156 182.971 195.443 183.273 195.766C183.581 196.083 183.734 196.505 183.734 197.031C183.734 197.708 183.492 198.258 183.008 198.68C182.529 199.096 181.901 199.305 181.125 199.305C180.458 199.305 179.891 199.18 179.422 198.93C178.958 198.68 178.586 198.302 178.305 197.797ZM185.75 198.234C185.75 197.979 185.841 197.76 186.023 197.578C186.206 197.396 186.424 197.305 186.68 197.305C186.94 197.305 187.161 197.396 187.344 197.578C187.531 197.755 187.625 197.974 187.625 198.234C187.625 198.49 187.534 198.706 187.352 198.883C187.169 199.055 186.945 199.141 186.68 199.141C186.419 199.141 186.198 199.055 186.016 198.883C185.839 198.706 185.75 198.49 185.75 198.234Z" fill="black"/>
</svg>
